<?xml version="1.0" standalone="no"?>
<!DOCTYPE svg PUBLIC "-//W3C//DTD SVG 20010904//EN"
 "http://www.w3.org/TR/2001/REC-SVG-20010904/DTD/svg10.dtd">
<svg version="1.0" xmlns="http://www.w3.org/2000/svg"
 width="400.000000pt" height="400.000000pt" viewBox="0 0 400.000000 400.000000"
 preserveAspectRatio="xMidYMid meet">
<metadata>
Created by potrace 1.11, written by Peter Selinger 2001-2013
</metadata>
<g transform="translate(0.000000,400.000000) scale(0.100000,-0.100000)"
fill="#000000" stroke="none">
<path d="M1760 3990 c-456 -56 -864 -252 -1181 -569 -391 -392 -597 -917 -576
-1471 20 -526 231 -995 613 -1360 267 -255 596 -427 969 -506 165 -35 493 -45
665 -20 439 64 816 253 1125 561 308 308 497 688 561 1125 25 172 15 500 -20
665 -139 656 -579 1188 -1191 1438 -120 49 -288 97 -430 122 -107 19 -426 28
-535 15z m407 -1094 l6 -46 553 2 c429 2 556 0 565 -9 17 -17 -33 -80 -90
-112 -52 -29 -168 -40 -417 -41 -94 0 -293 -3 -443 -7 l-273 -6 -91 -136
c-317 -475 -1035 -1455 -1074 -1468 -32 -11 -82 91 -69 142 14 54 351 532 765
1085 146 195 269 360 273 366 6 9 -127 10 -525 6 -387 -3 -547 -2 -586 7 -97
21 -160 92 -94 105 43 9 314 24 698 41 193 8 419 17 502 21 l153 6 52 64 c51
64 52 64 71 45 11 -11 21 -39 24 -65z m633 -1018 c41 -68 26 -120 -85 -293
-30 -47 -55 -87 -55 -90 0 -3 26 20 58 51 119 117 308 258 338 252 27 -5 45
-47 41 -93 -3 -28 -24 -73 -72 -148 -50 -80 -68 -117 -69 -145 -1 -36 0 -37
35 -36 62 2 163 81 272 212 32 40 57 37 57 -7 0 -39 -67 -127 -175 -229 -91
-86 -169 -132 -238 -139 -156 -17 -177 155 -40 333 19 25 33 48 31 50 -8 8
-170 -140 -290 -265 -144 -149 -149 -151 -194 -75 -40 68 -23 120 101 310 30
46 52 84 50 84 -9 0 -167 -142 -309 -277 -76 -73 -142 -133 -147 -133 -15 0
-39 47 -47 91 -6 37 -11 44 -28 41 -12 -1 -33 2 -47 7 -24 9 -31 5 -84 -48
-66 -66 -147 -109 -220 -117 -181 -22 -261 165 -161 375 37 79 155 202 234
243 63 34 153 58 216 58 50 0 118 -22 118 -38 0 -5 -26 -19 -57 -30 -176 -64
-333 -245 -333 -383 0 -68 47 -87 118 -49 77 41 85 54 83 126 -3 80 21 136 80
189 44 39 83 44 103 13 14 -22 -4 -110 -38 -184 -29 -63 -22 -73 37 -50 43 17
61 38 285 333 36 47 68 80 75 77 21 -8 47 -60 47 -94 0 -35 -18 -75 -64 -140
-18 -25 -36 -52 -41 -60 -5 -8 40 30 100 84 134 121 265 226 282 226 7 0 22
-15 33 -32z"/>
</g>
</svg>
